<?xml version="1.0" standalone="no"?>
<!DOCTYPE svg PUBLIC "-//W3C//DTD SVG 20010904//EN"
 "http://www.w3.org/TR/2001/REC-SVG-20010904/DTD/svg10.dtd">
<svg version="1.0" xmlns="http://www.w3.org/2000/svg"
 width="287.000000pt" height="287.000000pt" viewBox="0 0 287.000000 287.000000"
 preserveAspectRatio="xMidYMid meet">

<g transform="translate(0.000000,287.000000) scale(0.100000,-0.100000)"
fill="#000000" stroke="none">
<path d="M894 2541 c3 -4 19 -11 36 -15 22 -4 35 -15 45 -38 8 -18 14 -25 15
-16 0 29 -12 48 -41 63 -31 16 -63 20 -55 6z"/>
<path d="M742 2525 c-59 -18 -92 -42 -92 -66 0 -18 3 -18 24 8 25 30 82 53
130 53 33 0 62 -14 99 -48 15 -14 27 -20 27 -13 0 20 -50 60 -89 71 -44 12
-45 12 -99 -5z"/>
<path d="M681 2434 c-24 -20 -31 -34 -31 -62 1 -21 8 -48 16 -62 l15 -25 -6
25 c-19 71 -18 86 12 110 24 19 36 22 93 17 61 -5 63 -4 35 8 -49 23 -99 18
-134 -11z"/>
<path d="M994 2436 c19 -53 46 -176 52 -231 19 -186 -43 -270 -161 -221 -19 8
-35 11 -35 6 0 -5 9 -12 20 -15 17 -5 20 -15 20 -61 0 -30 5 -54 10 -54 6 0
10 23 10 50 l0 50 44 0 c37 0 48 5 70 30 33 40 40 81 33 204 -5 98 -36 229
-59 251 -8 7 -9 4 -4 -9z"/>
<path d="M770 2366 c0 -71 -12 -94 -48 -88 -22 3 -33 -1 -40 -15 -18 -34 14
-133 43 -133 18 0 21 -13 37 -150 7 -68 14 -101 16 -80 2 19 -2 82 -9 138 -11
92 -15 105 -34 112 -22 8 -45 55 -45 91 0 22 19 29 44 17 22 -12 31 -1 46 52
13 45 13 87 0 95 -6 4 -10 -11 -10 -39z"/>
<path d="M967 2323 c-13 -13 -7 -25 7 -14 7 6 22 8 31 4 13 -4 16 -3 11 5 -8
13 -39 16 -49 5z"/>
<path d="M849 2303 c-12 -15 -12 -16 6 -9 11 5 30 8 43 7 13 0 20 3 17 9 -10
16 -51 12 -66 -7z"/>
<path d="M955 2259 c13 -39 25 -93 25 -113 0 -15 -5 -17 -26 -12 -17 5 -23 3
-19 -4 3 -5 12 -10 20 -10 8 0 18 -6 22 -14 4 -7 19 -16 33 -20 24 -7 24 -6 6
8 -11 9 -23 16 -26 16 -3 0 -4 16 -2 36 5 38 -15 121 -30 131 -6 3 -7 -4 -3
-18z"/>
<path d="M988 2263 c6 -2 18 -2 25 0 6 3 1 5 -13 5 -14 0 -19 -2 -12 -5z"/>
<path d="M875 2250 c-7 -12 2 -12 30 0 19 8 19 9 -2 9 -12 1 -25 -3 -28 -9z"/>
<path d="M2030 2184 c0 -3 11 -15 25 -25 13 -11 27 -35 31 -54 9 -48 28 -45
21 3 -4 22 -17 46 -32 60 -25 21 -45 28 -45 16z"/>
<path d="M1973 2173 c-7 -3 -13 -9 -13 -14 0 -4 6 -6 14 -3 19 7 56 -30 56
-56 0 -11 5 -20 10 -20 27 0 -7 84 -37 92 -10 3 -24 3 -30 1z"/>
<path d="M2113 2163 c8 -10 22 -34 30 -53 l15 -35 1 30 c1 36 -23 75 -46 75
-15 0 -15 -2 0 -17z"/>
<path d="M2170 2164 c0 -15 24 -64 33 -64 4 0 7 6 7 14 0 16 -39 66 -40 50z"/>
<path d="M1325 2111 c-22 -10 -51 -31 -65 -45 l-25 -28 -2 -591 c-3 -610 -2
-633 36 -645 11 -4 10 1 -2 19 -15 21 -17 81 -17 614 0 662 -5 620 74 656 37
17 70 19 348 19 193 0 309 4 313 10 4 7 -101 10 -307 10 -283 0 -317 -2 -353
-19z"/>
<path d="M2224 2123 c4 -5 68 -10 142 -13 130 -5 134 -6 161 -33 l28 -27 8
-553 c8 -584 7 -629 -17 -676 -27 -52 -43 -53 -626 -60 l-535 -6 360 -8 c406
-10 722 -2 773 19 38 16 59 57 67 136 3 29 2 296 -2 593 -8 518 -9 541 -29
575 -12 22 -33 39 -54 47 -38 13 -288 18 -276 6z"/>
<path d="M908 2089 c-29 -16 -21 -30 10 -17 15 7 31 15 37 20 13 12 -27 9 -47
-3z"/>
<path d="M1852 1930 c-22 -9 -42 -46 -42 -76 0 -26 47 -64 78 -64 62 0 92 92
43 131 -25 21 -44 23 -79 9z"/>
<path d="M750 1807 c0 -31 6 -61 14 -73 16 -20 16 -20 81 22 18 12 26 10 59
-12 21 -14 40 -23 43 -20 9 9 16 103 9 122 -5 14 -11 13 -51 -10 -42 -25 -46
-26 -75 -11 -16 8 -41 20 -55 25 -25 9 -25 9 -25 -43z"/>
<path d="M1818 1730 c-37 -20 -88 -91 -88 -123 0 -15 16 -17 138 -17 75 0 147
3 160 6 28 8 28 32 -1 75 -51 76 -133 99 -209 59z"/>
<path d="M1705 1493 c-143 -2 -201 -7 -207 -16 -10 -16 -9 -137 2 -162 6 -13
9 9 9 68 l1 87 238 0 c132 0 307 3 390 7 l152 6 0 -80 0 -80 -187 -6 c-104 -4
-272 -7 -375 -7 -119 0 -188 -4 -188 -10 0 -12 244 -13 558 -3 l212 6 0 88 c0
48 -4 90 -9 93 -12 8 -366 13 -596 9z"/>
<path d="M1653 1163 l-153 -4 0 -100 0 -100 353 6 c193 3 376 8 405 11 l52 5
-2 92 -2 92 -3 -81 -4 -82 -42 -6 c-23 -3 -201 -8 -394 -12 l-353 -7 0 80 0
80 197 6 c108 4 281 7 385 7 119 0 188 4 188 10 0 10 -229 10 -627 3z"/>
<path d="M1667 1094 c-14 -15 -6 -34 14 -34 14 0 19 5 17 17 -3 18 -20 27 -31
17z"/>
<path d="M1760 1090 c-7 -4 -9 -13 -6 -19 10 -16 46 -14 46 3 0 17 -23 27 -40
16z"/>
<path d="M1857 1094 c-14 -15 -6 -34 14 -34 14 0 19 5 17 17 -3 18 -20 27 -31
17z"/>
<path d="M1940 1080 c0 -15 5 -20 18 -18 9 2 17 10 17 18 0 8 -8 16 -17 18
-13 2 -18 -3 -18 -18z"/>
<path d="M2032 1083 c5 -26 38 -29 38 -4 0 15 -6 21 -21 21 -14 0 -19 -5 -17
-17z"/>
<path d="M1575 1080 c-8 -14 3 -30 21 -30 8 0 14 9 14 20 0 21 -24 28 -35 10z"/>
<path d="M1355 838 c-11 -6 -43 -31 -72 -56 -29 -24 -72 -50 -95 -57 l-43 -14
36 0 c25 -1 48 8 75 29 21 17 57 44 78 60 53 41 61 38 27 -12 -16 -24 -27 -46
-24 -51 2 -4 20 15 39 43 43 63 33 89 -21 58z"/>
<path d="M1610 711 c-8 -5 -44 -11 -80 -15 -50 -4 -89 -18 -170 -57 -82 -40
-119 -53 -168 -57 -34 -3 -65 -9 -69 -15 -4 -6 19 -8 66 -5 62 5 88 13 174 57
77 38 121 53 179 62 43 6 83 18 89 25 13 15 2 18 -21 5z"/>
</g>
</svg>
